<svg xmlns="http://www.w3.org/2000/svg" version="1.1" xmlns:xlink="http://www.w3.org/1999/xlink" xmlns:svgjs="http://svgjs.dev/svgjs" width="1500" height="1500" viewBox="0 0 1500 1500"><rect width="1500" height="1500" fill="#ffffff"></rect><g transform="matrix(0.6666666666666666,0,0,0.6666666666666666,248.44244080996884,189.33333333333348)"><svg viewBox="0 0 321 360" data-background-color="#ffffff" preserveAspectRatio="xMidYMid meet" height="1682" width="1500" xmlns="http://www.w3.org/2000/svg" xmlns:xlink="http://www.w3.org/1999/xlink"><g id="tight-bounds" transform="matrix(1,0,0,1,0.5000234999999975,0)"><svg viewBox="0 0 320 360" height="360" width="320"><g><svg></svg></g><g><svg viewBox="0 0 320 360" height="360" width="320"><g><path transform="translate(-74.99272,-51.79039) scale(4.65793,4.65793)" d="M20.6 59.9l0.8 1-0.4-1.3c-0.1-0.6-0.8 0.1-0.4 0.3M21.5 59.3c0.3 0.5 0.6 1 0.6 1.5 0 0.7 0.6 1 1.1 1.2-0.7-0.8-1.1-3-1.7-2.7M59.9 16.9c1.7 0 3.3-0.2 5.1 0.2 4.4 1.1 8.1 3.3 10.6 6.4l7 11.2c0.3 2.8 0.9 5.9 0.8 9.3 0.7 0 0.6-1 1.4-1.2-0.8 2-1.2 4.5-1.4 7.4-0.5-1.6 0-4 0.1-5.3-0.7 1.1-1.1 0.3-1.1-0.2 0.1-0.8-0.3-0.7-0.6-1-1.1-1-1.8-2.1-2.6-3.8 0.5-1.3 0.6-3.2-1-4.2-0.5-0.3-1.1-0.8-1.4-1.6-0.4-1.1-1.1-2.4-0.9-4.1 0.1-0.5-1.5 1.1-2.4 0.4-3.9-2.7-7.8-5.8-12.5-8.4-2.5 0-4.3-0.9-5.2-2-0.8-1-0.2-2.3 1-2.4 0.7 0 1.5-0.2 2.1 0.2 0.1-0.4 0.5-0.9 1-0.9M50 14.6l0.2 0.1c1 0.2 1.5 1.6 2.6 1.1 0 0.7 0.1 1.4-0.1 1.9-0.3 0.8-1.2 0.8-1.9 0.8-6.7-0.4-10.6 2.4-14.7 4.8-1.1 0.7-2.3 1.2-3.2 2.1-4.3 4-9 7.7-10.1 15.1l-0.9 8.2c-0.1 0.9-1.1 1.8-0.9 2.9l0.7 4.9c-0.7-0.7-1.1 0.2-0.9 0.6 0.1 0.3 0.5 1.3 1.1 0.4 0.8 1.5 1.6 4.4 2.7 5.7 3.4 4 7.8 7.6 11.4 11.2 0.9-0.2 1.6-0.2 1.8-0.8 0.3 0.6-0.3 1.2-0.8 1.3 1.6 1 3.4 1.9 5.8 2.1 3.1 0.2 6 0.7 8.7 1.4 1.4-0.4 2.8-0.6 4.3-0.7 0.5 0 0.8-0.8 1.4-1l0.1-1c0.6 0.9 0.5-0.3 0.1-0.9 0.7 0.6 0.9 1.1 1.2 1.5 0-0.3 0.8-1.4 0.8-0.1l0.2-1.3c0.3-0.2 0.4 1.1 0.7 0.2 0.3-0.9 0.9-0.2 1.5-0.5-0.2 0.4-0.1 1.2 0.6 0.7l0.8-0.7c0.5 1.2 1.3 0.7 1.7 0.5 4.4-2.8 8.8-6.1 13-9.4l-0.1 1.3 0.5-1.6c0.5 0.5 0.9 0.1 1.1-0.2 0.6-1 1.4-2 2.7-2.9-1.6 4.3-3.5 7.7-5.9 10.5l-1 1.2c0 0.7-0.2 1.6-1 1.7-0.4 0.1-1.2-0.2-1.8 0.4-0.3 0.4 0.7 1.2-0.1 0.6-0.7-0.5-1.4 0-2.2 0.2-0.6 0.2 0.4 0.8 0.6 1.2 0.2 0.4 0.4 0.8 0.3 1.3l-1.1-1.2c-1.3 0.7-2.1 2-3.2 3-0.5 0.4-0.3 1.1-0.3 1.7-0.7 0-1.5-0.2-1.9 0.2-0.3 0.4-0.2 1-0.2 1.6-1-0.1-1.1-1.6-2-1.3-0.9 0.2-1.9 0.3-2.7 0.8 0.6 1.2-1 0.5-0.8 0.7-1.5-0.9-2.8-1.6-4.4-1-3.4-1.1-7.6-0.6-10.7-0.2 0-0.5 0.1-1-0.1-1.1-0.2 0.5-0.8 0.3-0.7 0.3-1.9-1.3-3.8-2.1-5.8-3.2-1.8 0.2-3.5-0.7-4-1.2-1.4-1.3-3-0.6-4.3-0.9-2.8-0.7-3.8-3.6-4.1-5.6-0.2-1-1-1.4-1.3-1.3-1.3-4.2-3.3-8-4.9-11.9-0.4-1-0.3-2-0.3-3.1 0.5 0.2 1 0.1 0.9-0.6-0.5-3.3-1.7-5.8-3-8.2 0.7-3.4 0.8-7.4 2.4-10.4 1.4-2.7 4-4.1 5.8-6.4 0.6-0.8 0.6-1.9 1.2-2.6 2-2 4-4.1 6.2-5.9 1-0.8 2.2 0 3.7-0.3 0.5-1.8 2.5-3.4 4.4-2.9 0.8 0.2 2.4-1.9 2.9-2.1 0.8-0.3 0.4 0.8 0.4 1.5 1.9-1.5 4.5-2.3 6.9-3.2" fill="#000000" fill-rule="nonzero" stroke="none" stroke-width="1" stroke-linecap="butt" stroke-linejoin="miter" stroke-miterlimit="10" stroke-dasharray="" stroke-dashoffset="0" font-family="none" font-weight="none" font-size="none" text-anchor="none" style="mix-blend-mode: normal" data-fill-palette-color="tertiary"></path></g><g transform="matrix(1,0,0,1,64,94.90076235832302)"><svg viewBox="0 0 192 170.19847528335396" height="170.19847528335396" width="192"><g><svg viewBox="0 0 192 170.19847528335396" height="170.19847528335396" width="192"><g><svg viewBox="0 0 192 170.19847528335396" height="170.19847528335396" width="192"><g transform="matrix(1,0,0,1,0,101.14479071978008)"><svg viewBox="0 0 192 69.05368456357388" height="69.05368456357388" width="192"><g id="textblocktransform"><svg viewBox="0 0 192 69.05368456357388" height="69.05368456357388" width="192" id="textblock"><g><svg viewBox="0 0 192 39.14776632302406" height="39.14776632302406" width="192"><g transform="matrix(1,0,0,1,0,0)"><svg width="192" viewBox="3.9 -35 174.57999999999998 35.6" height="39.14776632302406" data-palette-color="#d9bca9"><path d="M3.9 0L3.9-35 6.7-35 6.7-2.5 21.95-2.5 21.95 0 3.9 0ZM44.55-9.2Q44.55-5 42.25-2.25 39.95 0.5 35.3 0.5L35.3 0.5Q30.65 0.5 28.27-2.27 25.9-5.05 25.9-9.2L25.9-9.2 25.9-15.8Q25.9-20.55 28.32-23.08 30.75-25.6 35.3-25.6L35.3-25.6Q39.65-25.6 42.1-22.98 44.55-20.35 44.55-15.8L44.55-15.8 44.55-9.2ZM41.75-15.8Q41.75-19.55 40.02-21.3 38.3-23.05 35.3-23.05L35.3-23.05Q32.2-23.05 30.45-21.3 28.7-19.55 28.7-15.8L28.7-15.8 28.7-8.7Q28.7-5.7 30.47-3.85 32.25-2 35.3-2L35.3-2Q38.4-2 40.07-3.83 41.75-5.65 41.75-8.7L41.75-8.7 41.75-15.8ZM64.1-0.3Q61 0.5 58.1 0.5L58.1 0.5Q55.4 0.5 53.6-0.1L53.6-0.1Q50.65-1.1 49.32-3.18 48-5.25 48-9L48-9 48-15.4Q48-20.35 50.6-22.93 53.2-25.5 57.3-25.5L57.3-25.5Q60.55-25.5 64-23.9L64-23.9 63.2-21.85Q60.35-23 57.7-23L57.7-23Q54.6-23 52.7-21.23 50.8-19.45 50.8-15.7L50.8-15.7 50.8-8.45Q50.8-5 52.87-3.45 54.95-1.9 58.4-1.9L58.4-1.9Q60.65-1.9 63.5-2.55L63.5-2.55 64.1-0.3ZM81.89 0L72.29-15.85 69.69-13.6 69.69 0 66.89 0 66.89-35 69.69-35 69.69-16.75 79.69-26 81.69-24.05 74.29-17.6Q77.69-11.95 85.24 0L85.24 0 81.89 0ZM102.54-1.75Q100.74-0.6 98.44 0 96.14 0.6 93.84 0.6L93.84 0.6Q90.14 0.6 87.97-1.23 85.79-3.05 85.79-6.7L85.79-6.7 85.79-16.95Q85.79-21 88.32-23.25 90.84-25.5 94.99-25.5L94.99-25.5Q99.14-25.5 101.47-23.28 103.79-21.05 103.79-17.1L103.79-17.1 103.79-10.6 88.59-9.75 88.59-6.7Q88.59-4.3 90.14-3.1 91.69-1.9 94.19-1.9L94.19-1.9Q97.69-1.9 101.44-3.9L101.44-3.9 102.54-1.75ZM100.99-17.45Q100.99-20.55 99.04-21.83 97.09-23.1 94.94-23.1L94.94-23.1Q92.19-23.1 90.39-21.6 88.59-20.1 88.59-16.9L88.59-16.9 88.59-12.5 100.99-13.1 100.99-17.45ZM109.64-17.3Q109.64-22.55 113.89-24.5L113.89-24.5Q115.94-25.45 118.79-25.45L118.79-25.45Q120.64-25.45 122.36-25 124.09-24.55 125.29-23.7L125.29-23.7 125.29-35 128.09-35 128.09 0 125.34 0.25Q122.09 0.6 120.24 0.6L120.24 0.6Q118.39 0.6 116.76 0.25 115.14-0.1 113.54-0.9L113.54-0.9Q111.74-1.8 110.69-3.55 109.64-5.3 109.64-7.85L109.64-7.85 109.64-17.3ZM125.29-21.25Q123.94-22 122.19-22.48 120.44-22.95 118.74-22.95L118.74-22.95Q115.94-22.95 114.16-21.58 112.39-20.2 112.39-17.15L112.39-17.15 112.39-7.8Q112.39-1.95 120.44-1.95L120.44-1.95Q122.34-1.95 125.29-2.4L125.29-2.4 125.29-21.25ZM150.28 0L150.28-32.45 146.93-32.55 146.93-35 153.08-35 153.08 0 150.28 0ZM175.73 0L175.73-17.15Q175.73-20.2 173.96-21.58 172.18-22.95 169.38-22.95L169.38-22.95Q167.68-22.95 165.93-22.48 164.18-22 162.83-21.25L162.83-21.25 162.83 0 160.03 0 160.03-25.05 162.83-25.05 162.63-23.35Q163.83-24.4 165.68-24.93 167.53-25.45 169.53-25.45L169.53-25.45Q172.28-25.45 174.23-24.55L174.23-24.55Q176.23-23.65 177.36-21.85 178.48-20.05 178.48-17.3L178.48-17.3 178.48 0 175.73 0Z" opacity="1" transform="matrix(1,0,0,1,0,0)" fill="#000000" class="wordmark-text-0" data-fill-palette-color="primary" id="text-0"></path></svg></g></svg></g><g transform="matrix(1,0,0,1,0,44.86036497594502)"><svg viewBox="0 0 192 24.193319587628867" height="24.193319587628867" width="192"><g transform="matrix(1,0,0,1,0,0)"><svg width="192" viewBox="-8.55 -41.4 449.98 56.7" height="24.193319587628867" data-palette-color="#7c4e29"><path d="M8.4-20.2L7.2-20.5Q6.9-20.65 6.9-20.85L6.9-20.85Q6.9-21.15 7.45-21.15L7.45-21.15 8.95-21.15Q14.15-29.55 17.45-33.45L17.45-33.45Q20.9-37.45 24.3-39.43 27.7-41.4 29.55-41.4L29.55-41.4Q30.75-41.4 30.75-40.35L30.75-40.35Q30.75-38.05 28.38-35.68 26-33.3 24.35-32.6L24.35-32.6Q24.05-32.5 23.95-32.5L23.95-32.5Q23.75-32.5 23.75-32.75L23.75-32.75Q23.75-32.9 23.9-33.15L23.9-33.15Q26.8-37.4 26.8-38.8L26.8-38.8Q26.8-39.15 26.5-39.15L26.5-39.15Q25.9-39.15 24.5-38.05L24.5-38.05Q21.1-35.5 12.6-21.15L12.6-21.15 16.45-21.15Q17.15-21.15 17.15-20.95L17.15-20.95Q17.15-20.7 16.78-20.4 16.4-20.1 16.2-20.1L16.2-20.1 12.65-20.1Q11.95-20.1 11.95-19.75L11.95-19.75Q11.95-19.6 12.03-18.9 12.1-18.2 12.1-17.8L12.1-17.8Q12.1-13.15 9.28-6.63 6.45-0.1 1.95 5.9L1.95 5.9Q-0.65 9.35-2.85 11.6-5.05 13.85-6.18 14.58-7.3 15.3-7.85 15.3L-7.85 15.3Q-8.55 15.3-8.55 14.35L-8.55 14.35Q-8.55 9.75 1-7.1L1-7.1Q1-7.15 1.95-8.9 2.9-10.65 4.73-13.93 6.55-17.2 8.4-20.2L8.4-20.2ZM10.75-16.4L10.75-16.4Q10.75-17.1 10.6-17.7L10.6-17.7Q2.7-4.1-0.4 2.45L-0.4 2.45Q-3.25 8.35-3.25 9.35L-3.25 9.35Q-3.25 9.55-3.1 9.55L-3.1 9.55Q-2.4 9.55 0.35 6.3L0.35 6.3Q3.25 2.9 7-4.45 10.75-11.8 10.75-16.4ZM123.52-17.6L123.52-17.6Q123.97-17.5 123.97-17.3L123.97-17.3Q123.97-17 123.57-16.6L123.57-16.6Q123.02-16.05 121.94-15.15 120.87-14.25 120.67-14.05L120.67-14.05 119.97-13.1Q118.92-10.15 116.74-6.98 114.57-3.8 111.44-1.4 108.32 1 105.47 1L105.47 1Q101.92 1 101.92-3.35L101.92-3.35Q101.92-7.2 104.42-11.68 106.92-16.15 110.89-19.33 114.87-22.5 118.72-22.5L118.72-22.5Q121.52-22.5 121.52-20.3L121.52-20.3Q121.52-19.1 120.32-17.05L120.32-17.05Q120.27-17 120.27-16.9 120.27-16.8 120.37-16.8L120.37-16.8Q122.22-17.55 123.52-17.6ZM118.77-16.4L118.77-16.4Q119.17-18.15 119.17-19.1L119.17-19.1Q119.17-21.2 117.77-21.2L117.77-21.2Q115.82-21.2 112.92-17.6 110.02-14 107.94-9.5 105.87-5 105.87-2.4L105.87-2.4Q105.87-0.5 107.22-0.5L107.22-0.5Q109.32-0.5 112.24-4.7 115.17-8.9 115.77-13.15L115.77-13.15Q115.72-13.25 115.72-13.45L115.72-13.45Q115.72-14.9 118.32-16.05L118.32-16.05Q118.72-16.2 118.77-16.4ZM222.19-4.85L222.19-4.85Q219.94-2.7 217.11-0.83 214.29 1.05 212.34 1.05L212.34 1.05Q210.04 1.05 210.04-2.5L210.04-2.5Q210.04-6.25 212.69-10.83 215.34-15.4 219.41-18.65 223.49-21.9 227.14-21.9L227.14-21.9Q229.09-21.9 229.09-20.45L229.09-20.45Q229.09-17.95 225.84-14.8L225.84-14.8Q225.54-14.5 224.54-13.75 223.54-13 223.14-13L223.14-13Q222.89-13 222.89-13.25L222.89-13.25 223.04-13.7Q225.04-17.25 225.04-19.1L225.04-19.1Q225.04-20.1 224.39-20.1L224.39-20.1Q222.84-20.1 220.46-17.07 218.09-14.05 216.34-10.18 214.59-6.3 214.59-4.05L214.59-4.05Q214.59-2.25 215.89-2.25L215.89-2.25Q218.14-2.25 221.54-5.5L221.54-5.5Q224.19-7.95 229.14-13.6L229.14-13.6Q229.29-13.75 229.39-13.75 229.49-13.75 229.49-13.55L229.49-13.55Q229.49-12.6 228.74-11.7L228.74-11.7Q225.04-7.6 222.19-4.85ZM325.71-6.65L326.61-8.35 328.16-11Q328.16-11.15 328.06-11.15 327.96-11.15 327.81-11L327.81-11Q325.96-8.85 323.96-6.83 321.96-4.8 320.91-3.85L320.91-3.85 319.81-2.9Q315.91 0.8 314.41 0.8L314.41 0.8Q313.71 0.8 313.71-0.1L313.71-0.1Q313.71-1.1 314.53-3.15 315.36-5.2 316.21-6.8L316.21-6.8 317.01-8.35Q321.21-16.2 323.21-18.85L323.21-18.85Q324.21-20.15 325.66-21.03 327.11-21.9 327.91-21.9L327.91-21.9Q328.41-21.9 328.41-21.55L328.41-21.55Q328.41-21.35 328.21-21L328.21-21Q328.11-20.8 326.16-17.68 324.21-14.55 323.01-12.3L323.01-12.3Q319.71-6.25 319.71-5.35L319.71-5.35Q319.71-5 320.01-5L320.01-5Q320.46-5 321.56-5.9L321.56-5.9Q324.81-8.7 328.71-13.45L328.71-13.45Q330.86-15.75 333.21-19.45L333.21-19.45Q334.81-21.9 337.46-21.9L337.46-21.9Q337.91-21.9 337.91-21.5L337.91-21.5 337.51-20.55Q336.81-19.3 334.38-15.08 331.96-10.85 331.61-10.25L331.61-10.25Q329.56-6.65 329.56-5.5L329.56-5.5Q329.56-5.05 329.86-5.05L329.86-5.05Q330.36-5.05 333.06-7.55L333.06-7.55Q335.16-9.65 338.61-13.6L338.61-13.6Q338.76-13.75 338.86-13.75 338.96-13.75 338.96-13.55L338.96-13.55Q338.96-12.6 338.21-11.7L338.21-11.7Q334.51-7.6 331.66-4.85L331.66-4.85Q329.71-3 327.28-1.15 324.86 0.7 323.76 0.7L323.76 0.7Q323.01 0.7 323.01-0.35L323.01-0.35Q323.01-0.95 323.91-2.95 324.81-4.95 325.71-6.65L325.71-6.65ZM436.58-5.7L436.58-5.7Q435.68-3.25 433.73-1.58 431.78 0.1 430.1 0.7 428.43 1.3 427.08 1.3L427.08 1.3Q423.43 1.3 423.43-1.55L423.43-1.55Q423.43-4.45 426.63-6.8L426.63-6.8Q428.13-7.9 429.88-8.25L429.88-8.25Q430.13-8.25 430.13-8.05L430.13-8.05Q430.13-7.95 430.03-7.85L430.03-7.85Q428.78-6.9 427.65-4.9 426.53-2.9 426.53-1.4 426.53 0.1 427.78 0.1L427.78 0.1Q428.78 0.1 429.75-0.73 430.73-1.55 431.23-2.4L431.23-2.4 431.73-3.2Q432.73-4.8 433.4-8.3 434.08-11.8 434.28-14.5L434.28-14.5 434.43-17.2Q434.43-17.6 434.28-17.6L434.28-17.6 434.08-17.5 429.13-11.7Q428.58-11.05 428.38-11.05L428.38-11.05Q428.13-11.05 428.13-11.4L428.13-11.4Q428.13-12.05 428.48-12.4L428.48-12.4 428.93-12.95Q434.63-19.35 435.43-20.7L435.43-20.7Q436.18-21.85 437.63-22.7L437.63-22.7Q439.03-23.5 440.93-23.5L440.93-23.5Q441.43-23.5 441.43-23.1L441.43-23.1Q441.43-22.85 441.03-22.65L441.03-22.65Q440.88-22.6 440.65-22.43 440.43-22.25 439.85-21.6 439.28-20.95 438.83-20.1 438.38-19.25 438.03-17.73 437.68-16.2 437.68-14.35L437.68-14.35Q437.68-8.6 436.58-5.7Z" opacity="1" transform="matrix(1,0,0,1,0,0)" fill="#000000" class="slogan-text-1" data-fill-palette-color="secondary" id="text-1"></path></svg></g></svg></g></svg></g></svg></g><g transform="matrix(1,0,0,1,58.532758494153974,0)"><svg viewBox="0 0 74.93448301169205 95.43219206685912" height="95.43219206685912" width="74.93448301169205"><g><svg xmlns="http://www.w3.org/2000/svg" xmlns:xlink="http://www.w3.org/1999/xlink" version="1.1" x="0" y="0" viewBox="87.65196646521878 41.60232951907152 336.6954189067467 428.7956704809285" enable-background="new 0 0 512 512" xml:space="preserve" height="95.43219206685912" width="74.93448301169205" class="icon-icon-0" data-fill-palette-color="accent" id="icon-0"><g fill="#7c4e29" data-fill-palette-color="accent"><g fill="#7c4e29" data-fill-palette-color="accent"><path d="M271.294 41.644A165 165 0 0 0 263.79 41.646C226.498 42.506 191.601 57.909 165.529 85.017 139.579 111.999 125.287 147.491 125.287 184.952V201.556L90.96 256.827C87.217 262.855 86.62 270.076 89.324 276.638S97.538 287.904 104.442 289.546L122.109 293.745V358.536C122.109 376.37 136.619 390.88 154.453 390.88H234.925V464.398A6 6 0 0 0 246.925 464.398V390.88H294.791L338.894 339.17A6 6 0 0 0 338.222 330.711 6 6 0 0 0 329.763 331.383L289.254 378.88H154.454C143.236 378.88 134.11 369.754 134.11 358.536V284.264L107.218 277.87A9.7 9.7 0 0 1 100.419 272.066 9.7 9.7 0 0 1 101.154 263.157L137.286 204.977V184.951C137.286 114.159 194.159 55.254 264.066 53.642 266.378 53.589 268.708 53.588 271.023 53.64 315.729 54.647 356.719 76.013 383.483 112.26 410.727 149.157 419.188 195.593 406.696 239.657L384.758 317.038V464.396A6 6 0 0 0 396.758 464.396V318.708L418.241 242.932C431.754 195.267 422.603 145.041 393.137 105.133 364.15 65.876 319.74 42.735 271.294 41.644" fill="#000000" data-fill-palette-color="accent"></path><g fill="#7c4e29" data-fill-palette-color="accent"><g fill="#7c4e29" data-fill-palette-color="accent"><path d="M275.334 109.69V69.78A6 6 0 0 0 263.334 69.78V109.69A6 6 0 0 0 275.334 109.69" fill="#000000" data-fill-palette-color="accent"></path><path d="M263.334 264.335V304.245A6 6 0 0 0 275.334 304.245V264.335A6 6 0 0 0 263.334 264.335" fill="#000000" data-fill-palette-color="accent"></path><path d="M144.699 185.611A6 6 0 0 0 150.699 191.611H190.609A6 6 0 0 0 190.609 179.611H150.699A6 6 0 0 0 144.699 185.611" fill="#000000" data-fill-palette-color="accent"></path><path d="M342.059 185.611A6 6 0 0 0 348.059 191.611H387.969A6 6 0 0 0 387.969 179.611H348.059A6 6 0 0 0 342.059 185.611" fill="#000000" data-fill-palette-color="accent"></path></g><path d="M306.589 167.267A6 6 0 0 0 306.589 158.782 6 6 0 0 0 298.105 158.782L251.354 205.532 237.336 191.513A6 6 0 0 0 228.85 199.998L251.354 222.502z" fill="#000000" data-fill-palette-color="accent"></path><path d="M332.156 184.906C332.156 150.265 303.974 122.083 269.334 122.083 254.72 122.083 240.488 127.212 229.256 136.524A6 6 0 0 0 236.916 145.761C245.998 138.23 257.511 134.082 269.333 134.082 297.356 134.082 320.155 156.881 320.155 184.905 320.155 212.928 297.356 235.727 269.333 235.727S218.51 212.928 218.51 184.905C218.51 177.169 220.201 169.745 223.536 162.838A6.003 6.003 0 0 0 220.742 154.825 6.004 6.004 0 0 0 212.729 157.62C208.602 166.167 206.509 175.348 206.509 184.905 206.509 219.545 234.691 247.727 269.332 247.727 303.975 247.729 332.156 219.546 332.156 184.906" fill="#000000" data-fill-palette-color="accent"></path><g fill="#7c4e29" data-fill-palette-color="accent"><path d="M172.875 173.697A6 6 0 0 0 178.776 168.744C185.297 131.975 213.075 103.053 249.545 95.058A6 6 0 1 0 246.976 83.336C226.909 87.734 208.731 97.929 194.408 112.816 180.051 127.74 170.559 146.354 166.96 166.647A6.002 6.002 0 0 0 172.875 173.697" fill="#000000" data-fill-palette-color="accent"></path><path d="M250.33 287.137A6.001 6.001 0 0 0 252.508 275.337C215.646 268.535 186.113 239.222 179.021 202.393A6 6 0 0 0 167.238 204.662C175.256 246.302 208.649 279.446 250.33 287.137" fill="#000000" data-fill-palette-color="accent"></path><path d="M366.672 197.635A6 6 0 0 0 359.648 202.394C352.566 239.21 323.034 268.523 286.16 275.337A6 6 0 1 0 288.34 287.135C330.033 279.432 363.425 246.287 371.432 204.659A6 6 0 0 0 366.672 197.635" fill="#000000" data-fill-palette-color="accent"></path><path d="M343.626 112.375C329.045 97.442 310.589 87.35 290.253 83.187A5.996 5.996 0 0 0 283.172 87.863 6 6 0 0 0 287.847 94.944C324.298 102.403 353.185 132.021 359.727 168.643A6 6 0 0 0 366.688 173.494 6 6 0 0 0 371.54 166.532C367.882 146.059 358.229 127.331 343.626 112.375" fill="#000000" data-fill-palette-color="accent"></path></g></g></g></g></svg></g></svg></g><g></g></svg></g></svg></g></svg></g></svg></g><defs></defs></svg><rect width="320" height="360" fill="none" stroke="none" visibility="hidden"></rect></g></svg></g></svg>